<svg clip-rule="evenodd" fill-rule="evenodd" stroke-linejoin="round" stroke-miterlimit="1.41421" viewBox="0 0 26 26" xmlns="http://www.w3.org/2000/svg"><path d="m24.249 12.76-5.416-9.384c-.086-.148-.244-.24-.415-.24h-10.839c-.17 0-.328.092-.413.24l-5.417 9.384c-.085.15-.085.33 0 .48l5.42 9.384c.084.147.24.24.412.24h10.838c.17 0 .328-.093.414-.24l5.416-9.384c.087-.15.087-.33 0-.48zm-16.39-8.666h9.734l-2.207 3.822h-5.047c-.17 0-.326.09-.413.238l-2.534 4.39h-4.413l4.878-8.45zm7.527 13.037h-4.227l2.052-3.63h4.27l-2.097 3.63zm-5.047-7.778 2.07 3.627-2.072 3.663-2.104-3.644 2.106-3.648zm2.92 3.192-2.094-3.674h4.22l2.12 3.674zm-10.254.955h4.414l2.51 4.346c.086.147.243.24.413.24h5.045l2.207 3.82h-9.734l-4.857-8.406zm15.415 7.93-2.207-3.823 2.52-4.367c.086-.148.086-.33 0-.48l-2.52-4.367 2.206-3.823 4.865 8.43-4.866 8.43z" fill="#fff4e1" fill-rule="nonzero"/></svg>