<?xml version="1.0" encoding="UTF-8" standalone="no"?><!DOCTYPE svg PUBLIC "-//W3C//DTD SVG 1.1//EN" "http://www.w3.org/Graphics/SVG/1.1/DTD/svg11.dtd"><svg width="100%" height="100%" viewBox="0 0 26 26" version="1.1" xmlns="http://www.w3.org/2000/svg" xmlns:xlink="http://www.w3.org/1999/xlink" xml:space="preserve" xmlns:serif="http://www.serif.com/" style="fill-rule:evenodd;clip-rule:evenodd;stroke-linejoin:round;stroke-miterlimit:1.41421;"><path d="M24.249,12.76l-5.416,-9.384c-0.086,-0.148 -0.244,-0.24 -0.415,-0.24l-10.839,0c-0.17,0 -0.328,0.092 -0.413,0.24l-5.417,9.384c-0.085,0.15 -0.085,0.33 0,0.48l5.42,9.384c0.084,0.147 0.24,0.24 0.412,0.24l10.838,0c0.17,0 0.328,-0.093 0.414,-0.24l5.416,-9.384c0.087,-0.15 0.087,-0.33 0,-0.48Zm-16.39,-8.666l9.734,0l-2.207,3.822l-5.047,0c-0.17,0 -0.326,0.09 -0.413,0.238l-2.534,4.39l-4.413,0l4.878,-8.45l0.002,0Zm7.527,13.037l-4.227,0l2.052,-3.63l4.27,0l-2.097,3.63l0.002,0Zm-5.047,-7.778l2.07,3.627l-2.072,3.663l-2.104,-3.644l2.106,-3.648l0,0.002Zm2.92,3.192l-2.094,-3.674l4.22,0l2.12,3.674l-4.246,0Zm-10.254,0.955l4.414,0l2.51,4.346c0.086,0.147 0.243,0.24 0.413,0.24l5.045,0l2.207,3.82l-9.734,0l-4.857,-8.406l0.002,0Zm15.415,7.93l-2.207,-3.823l2.52,-4.367c0.086,-0.148 0.086,-0.33 0,-0.48l-2.52,-4.367l2.206,-3.823l4.865,8.43l-4.866,8.43l0.002,0Z" style="fill:#fff4e1;fill-rule:nonzero;"/></svg>