<?xml version="1.0" encoding="UTF-8" standalone="no"?>
<!DOCTYPE svg PUBLIC "-//W3C//DTD SVG 1.1//EN" "http://www.w3.org/Graphics/SVG/1.1/DTD/svg11.dtd">
<svg width="100%" height="100%" viewBox="0 0 1380 204" version="1.1" xmlns="http://www.w3.org/2000/svg" xmlns:xlink="http://www.w3.org/1999/xlink" xml:space="preserve" xmlns:serif="http://www.serif.com/" style="fill-rule:evenodd;clip-rule:evenodd;stroke-linecap:round;stroke-miterlimit:10;">
    <g transform="matrix(1,0,0,1,-502.16,-1002.15)">
        <g transform="matrix(4.16667,0,0,4.16667,558.722,998.981)">
            <text x="41.7px" y="10px" style="font-family:'MenoeGrotesqueStd-Regular', 'Menoe Grotesque Std';font-size:14px;fill:rgb(253,64,0);">2004</text>
        </g>
        <g transform="matrix(4.16667,0,0,4.16667,558.722,998.981)">
            <text x="230.7px" y="10px" style="font-family:'MenoeGrotesqueStd-Regular', 'Menoe Grotesque Std';font-size:14px;fill:rgb(253,64,0);">2020</text>
        </g>
        <g transform="matrix(4.16667,0,0,-4.16667,562.889,1123.98)">
            <path d="M0.5,0.5L301.5,0.5" style="fill:none;fill-rule:nonzero;stroke:rgb(215,215,215);stroke-width:3px;stroke-dasharray:0,8;"/>
        </g>
        <g transform="matrix(4.16667,0,0,-4.16667,800.389,1123.98)">
            <path d="M0.5,0.5L189.5,0.5" style="fill:none;fill-rule:nonzero;stroke:rgb(253,64,0);stroke-width:4px;"/>
        </g>
        <g transform="matrix(0,4.16667,4.16667,0,1525.39,90.6478)">
            <clipPath id="_clip1">
                <path d="M247.5,22L253.129,18.75L253.129,12.25L247.5,9L241.871,12.25L241.871,18.75L247.5,22Z"/>
            </clipPath>
            <g clip-path="url(#_clip1)">
                <rect x="236.871" y="4" width="21.258" height="23" style="fill:rgb(35,31,32);"/>
            </g>
        </g>
        <g transform="matrix(0,4.16667,4.16667,0,737.889,878.148)">
            <clipPath id="_clip2">
                <path d="M58.5,22L64.129,18.75L64.129,12.25L58.5,9L52.871,12.25L52.871,18.75L58.5,22Z"/>
            </clipPath>
            <g clip-path="url(#_clip2)">
                <rect x="47.871" y="4" width="21.258" height="23" style="fill:rgb(35,31,32);"/>
            </g>
        </g>
    </g>
</svg>
