<svg clip-rule="evenodd" fill-rule="evenodd" stroke-linejoin="round" stroke-miterlimit="10" viewBox="0 0 200 138" xmlns="http://www.w3.org/2000/svg" xmlns:xlink="http://www.w3.org/1999/xlink"><clipPath id="a"><path clip-rule="evenodd" d="m135.429 56.571-17.5 30.311-17.455 29.541-17.545-29.541-17.5-30.311 17.5-30.311h35z"/></clipPath><clipPath id="b"><path clip-rule="evenodd" d="m200.429 25.858-14 24.204-13.964 22.448-14.036-22.448-14-24.204 14-24.206h28z"/></clipPath><clipPath id="c"><path clip-rule="evenodd" d="m56.429 24.776-14 24.205-13.964 22.448-14.036-22.448-14-24.205 14-24.205h28z"/></clipPath><clipPath id="d"><path clip-rule="evenodd" d="m117.429 56.571-8.5 14.723h-17l-8.5-14.723 8.5-14.722h17z"/></clipPath><clipPath id="e"><path clip-rule="evenodd" d="m186.429 25.652-7 12.125h-14l-7-12.125 7-12.124h14z"/></clipPath><clipPath id="f"><path clip-rule="evenodd" d="m42.429 24.571-7 12.125h-14l-7-12.125 7-12.124h14z"/></clipPath><g clip-path="url(#a)" transform="matrix(.871688 0 0 .871688 11.9387 6.67092)"><path d="m30.311 70 30.311-17.5 29.541-17.455-29.541-17.545-30.311-17.5-30.311 17.5v35z" fill="none" stroke="#ff5800" stroke-width="6" transform="matrix(0 1 1 0 65.4288 26.2603)"/></g><g clip-path="url(#b)" transform="matrix(.871688 0 0 .871688 11.9387 6.67092)"><path d="m24.205 56 24.205-14 22.448-13.964-22.448-14.036-24.205-14-24.205 14v28z" fill="none" stroke="#ff5800" stroke-width="6" transform="matrix(0 1 1 0 144.429 1.6525)"/></g><g clip-path="url(#c)" transform="matrix(.871688 0 0 .871688 11.9387 6.67092)"><path d="m24.205 56 24.205-14 22.448-13.964-22.448-14.036-24.205-14-24.205 14v28z" fill="none" stroke="#ff5800" stroke-width="6" transform="matrix(0 1 1 0 .4288 .5712)"/></g><g clip-path="url(#d)" transform="matrix(.871688 0 0 .871688 11.9387 6.67092)"><path d="m17 34 14.722-8.5v-17l-14.722-8.5-14.722 8.5v17z" fill="none" stroke="#ff5800" stroke-linejoin="miter" stroke-width="4" transform="matrix(0 1 1 0 83.4288 39.5712)"/></g><g clip-path="url(#e)" transform="matrix(.871688 0 0 .871688 11.9387 6.67092)"><path d="m14 28 12.124-7v-14l-12.124-7-12.124 7v14z" fill="none" stroke="#ff5800" stroke-linejoin="miter" stroke-width="4" transform="matrix(0 1 1 0 158.429 11.6525)"/></g><g clip-path="url(#f)" transform="matrix(.871688 0 0 .871688 11.9387 6.67092)"><path d="m14 28 12.124-7v-14l-12.124-7-12.124 7v14z" fill="none" stroke="#ff5800" stroke-linejoin="miter" stroke-width="4" transform="matrix(0 1 1 0 14.4288 10.5712)"/></g><g fill="none" stroke="#2f292b" stroke-linecap="square" stroke-linejoin="miter" stroke-width="5"><path d="m.5.5h35" transform="matrix(.87168819735 0 0 -.87168819735 83.35480338 115.69371228)"/><path d="m.5.5h35" transform="matrix(.87168819735 0 0 -.87168819735 146.98868823 76.46777478)"/><path d="m.5.5h35" transform="matrix(.87168819735 0 0 -.87168819735 21.465060615 75.52635228)"/></g></svg>