<svg clip-rule="evenodd" fill-rule="evenodd" stroke-miterlimit="10" viewBox="0 0 818 409" xmlns="http://www.w3.org/2000/svg" xmlns:xlink="http://www.w3.org/1999/xlink"><clipPath id="a"><path clip-rule="evenodd" d="m91 13-7.5 12.99h-15l-7.5-12.99 7.5-12.99h15z"/></clipPath><clipPath id="b"><path clip-rule="evenodd" d="m144 23-5.5 9.526h-11l-5.5-9.526 5.5-9.526h11z"/></clipPath><clipPath id="c"><path clip-rule="evenodd" d="m30 23-5.5 9.526h-11l-5.5-9.526 5.5-9.526h11z"/></clipPath><clipPath id="d"><path clip-rule="evenodd" d="m89.5 2c5.29 0 9.666 3.911 10.394 9h.106v27h-48v-27h.106c.728-5.089 5.104-9 10.394-9z"/></clipPath><clipPath id="e"><path clip-rule="evenodd" d="m145.5 8c3.974 0 7.226 3.091 7.484 7h.016v15h-39v-15h.016c.258-3.909 3.51-7 7.484-7z"/></clipPath><clipPath id="f"><path clip-rule="evenodd" d="m33.336 12c3.238 0 5.877 2.566 5.995 5.775l.005.225v12h-39v-12c0-3.314 2.686-6 6-6z"/></clipPath><g clip-path="url(#a)" transform="matrix(4.16667 0 0 4.16667 92.29 125.583)"><path d="m15 30 12.99-7.5v-15l-12.99-7.5-12.99 7.5v15z" fill="none" stroke="#ff5800" stroke-width="6" transform="matrix(0 1 1 0 61 -2)"/></g><g clip-path="url(#b)" transform="matrix(4.16667 0 0 4.16667 92.29 125.583)"><path d="m11 22 9.526-5.5v-11l-9.526-5.5-9.526 5.5v11z" fill="none" stroke="#ff5800" stroke-width="6" transform="matrix(0 1 1 0 122 12)"/></g><g clip-path="url(#c)" transform="matrix(4.16667 0 0 4.16667 92.29 125.583)"><path d="m11 22 9.526-5.5v-11l-9.526-5.5-9.526 5.5v11z" fill="none" stroke="#ff5800" stroke-width="6" transform="matrix(0 1 1 0 8 12)"/></g><g clip-path="url(#d)" transform="matrix(4.16667 0 0 4.16667 92.29 250.583)"><path d="m47-3h58v46h-58z" fill="#ff5800"/></g><g clip-path="url(#e)" transform="matrix(4.16667 0 0 4.16667 92.29 258.917)"><path d="m109 3h49v32h-49z" fill="#ff5800"/></g><g clip-path="url(#f)" transform="matrix(4.16667 0 0 4.16667 92.29 242.25)"><path d="m-4.664 7h49v28h-49z" fill="#ff5800"/></g></svg>